<svg width="114" height="34" viewBox="0 0 114 34" fill="none" xmlns="http://www.w3.org/2000/svg">
<path d="M0.192 17.192H3.712L7.904 29.096L12.064 17.192H15.584L9.568 33H6.272L0.192 17.192ZM25.0353 33.32C23.2219 33.32 21.6646 32.9467 20.3633 32.2C19.0833 31.4533 18.1126 30.4507 17.4513 29.192C16.8113 27.9333 16.4913 26.5253 16.4913 24.968C16.4913 23.496 16.7899 22.152 17.3873 20.936C18.0059 19.6987 18.8913 18.7173 20.0433 17.992C21.2166 17.2667 22.6033 16.904 24.2033 16.904C26.2939 16.904 27.9579 17.5227 29.1953 18.76C30.4326 19.976 31.0513 21.608 31.0513 23.656C31.0513 24.2107 30.9873 24.808 30.8593 25.448H19.9153C20.1286 27.2187 20.7153 28.4987 21.6753 29.288C22.6566 30.0773 23.8939 30.472 25.3873 30.472C27.0726 30.472 28.6193 30.1093 30.0273 29.384L30.3473 32.104C28.6406 32.9147 26.8699 33.32 25.0353 33.32ZM27.6273 23.176C27.6273 22.1733 27.3393 21.352 26.7633 20.712C26.1873 20.072 25.3233 19.752 24.1713 19.752C22.0166 19.752 20.6619 20.8933 20.1073 23.176H27.6273ZM21.4193 12.456L27.5313 8.904V12.264L21.4193 14.664V12.456ZM86.6442 30.144H89.4762V33H86.6442V30.144ZM90.0893 21.144H92.7293L95.8733 30.072L98.9933 21.144H101.633L97.1213 33H94.6493L90.0893 21.144ZM109.149 20.928C110.733 20.928 111.909 21.416 112.677 22.392C113.445 23.352 113.829 24.696 113.829 26.424V33H111.333V26.52C111.333 25.32 111.117 24.448 110.685 23.904C110.253 23.344 109.541 23.064 108.549 23.064C107.941 23.064 107.397 23.176 106.917 23.4C106.437 23.624 106.045 23.952 105.741 24.384V33H103.245V21.144H105.381L105.525 22.224C106.597 21.36 107.805 20.928 109.149 20.928Z" fill="#383F47"/>
<path d="M40.4575 9.96H32.5375V5H53.4975V9.96H45.5775V33H40.4575V9.96ZM63.1163 33.4C60.7963 33.4 58.8096 32.9333 57.1563 32C55.5296 31.04 54.3029 29.7733 53.4763 28.2C52.6763 26.6 52.2763 24.8267 52.2763 22.88C52.2763 21.0133 52.6629 19.3067 53.4363 17.76C54.2096 16.2133 55.3296 14.9867 56.7963 14.08C58.2629 13.1467 60.0096 12.68 62.0363 12.68C63.9029 12.68 65.4763 13.0667 66.7563 13.84C68.0629 14.6133 69.0363 15.6533 69.6763 16.96C70.3429 18.2667 70.6763 19.7333 70.6763 21.36C70.6763 22.16 70.5696 23.0667 70.3563 24.08H57.4363C57.7029 25.84 58.3963 27.16 59.5163 28.04C60.6363 28.8933 61.9829 29.32 63.5563 29.32C65.7163 29.32 67.7163 28.7733 69.5563 27.68L69.7963 31.88C68.9429 32.3333 67.9429 32.7067 66.7963 33C65.6763 33.2667 64.4496 33.4 63.1163 33.4ZM65.6363 20.72C65.6363 19.68 65.3429 18.76 64.7563 17.96C64.1696 17.16 63.2629 16.76 62.0363 16.76C60.8096 16.76 59.8229 17.12 59.0763 17.84C58.3296 18.56 57.8229 19.52 57.5563 20.72H65.6363ZM68.0763 0.0799994H72.6763L68.5963 5.16H65.4363L68.0763 0.0799994ZM57.1163 8.24L62.3963 4.56L67.6763 8.24V11.2L62.3963 8.32L57.1163 11.2V8.24ZM80.5822 33.4C78.8222 33.4 77.4889 32.8933 76.5822 31.88C75.6755 30.84 75.2222 29.6 75.2222 28.16V17.08H72.3822L72.8222 13H75.2222V8.6L80.1822 8.08V13H84.5822V17.08H80.1822V26.12C80.1822 27.1867 80.2355 27.9333 80.3422 28.36C80.4755 28.76 80.7289 29.0267 81.1022 29.16C81.5022 29.2667 82.2089 29.32 83.2222 29.32H84.5822L84.1422 33.4H80.5822Z" fill="#FF4868"/>
</svg>
